STARTFONT 2.1
FONT -FontForge-Bitstream Vera Sans-Book-R-Normal-Sans--16-150-75-75-P-94-ISO10646-1
SIZE 15 75 75
FONTBOUNDINGBOX 23 19 -3 -4
COMMENT "Generated by fontforge, http://fontforge.sourceforge.net"
COMMENT "Copyright (c) 2003 by Bitstream, Inc. All Rights Reserved."
STARTPROPERTIES 40
FOUNDRY "FontForge"
FAMILY_NAME "Bitstream Vera Sans"
WEIGHT_NAME "Book"
SLANT "R"
SETWIDTH_NAME "Normal"
ADD_STYLE_NAME "Sans"
PIXEL_SIZE 16
POINT_SIZE 150
RESOLUTION_X 75
RESOLUTION_Y 75
SPACING "P"
AVERAGE_WIDTH 94
CHARSET_REGISTRY "ISO10646"
CHARSET_ENCODING "1"
FONTNAME_REGISTRY ""
CHARSET_COLLECTIONS "ISO8859-9 ISO10646-1"
FONT_NAME "BitstreamVeraSans-Roman"
FACE_NAME "Bitstream Vera Sans"
COPYRIGHT "Copyright (c) 2003 by Bitstream, Inc. All Rights Reserved."
FONT_VERSION "Release 1.10"
FONT_ASCENT 12
FONT_DESCENT 4
UNDERLINE_POSITION -2
UNDERLINE_THICKNESS 2
X_HEIGHT 8
CAP_HEIGHT 11
RAW_ASCENT 759
RAW_DESCENT 240
NORM_SPACE 5
RELATIVE_WEIGHT 40
RELATIVE_SETWIDTH 50
SUPERSCRIPT_X 0
SUPERSCRIPT_Y 4
SUPERSCRIPT_SIZE 9
SUBSCRIPT_X 0
SUBSCRIPT_Y -3
SUBSCRIPT_SIZE 9
FIGURE_WIDTH 10
AVG_LOWERCASE_WIDTH 88
AVG_UPPERCASE_WIDTH 107
ENDPROPERTIES
CHARS 268
STARTCHAR space
ENCODING 32
SWIDTH 317 0
DWIDTH 5 0
BBX 1 1 0 0
BITMAP
00
ENDCHAR
STARTCHAR exclam
ENCODING 33
SWIDTH 400 0
DWIDTH 6 0
BBX 1 12 2 0
BITMAP
80
80
80
80
80
80
80
80
00
00
80
80
ENDCHAR
STARTCHAR quotedbl
ENCODING 34
SWIDTH 459 0
DWIDTH 6 0
BBX 4 4 1 8
BITMAP
90
90
90
90
ENDCHAR
STARTCHAR numbersign
ENCODING 35
SWIDTH 837 0
DWIDTH 13 0
BBX 11 11 1 0
BITMAP
0C80
0880
0980
7FE0
1900
1100
1300
FFC0
3200
2200
2600
ENDCHAR
STARTCHAR dollar
ENCODING 36
SWIDTH 636 0
DWIDTH 10 0
BBX 7 14 2 -2
BITMAP
10
10
7C
D2
90
90
70
1C
12
12
96
7C
10
10
ENDCHAR
STARTCHAR percent
ENCODING 37
SWIDTH 950 0
DWIDTH 15 0
BBX 13 12 1 0
BITMAP
7040
8840
8880
8980
8900
7200
0270
0488
0C88
0888
1088
1070
ENDCHAR
STARTCHAR ampersand
ENCODING 38
SWIDTH 779 0
DWIDTH 12 0
BBX 10 12 1 0
BITMAP
3C00
6200
4000
4000
2000
5000
8840
8440
8240
8180
4180
3E40
ENDCHAR
STARTCHAR quotesingle
ENCODING 39
SWIDTH 274 0
DWIDTH 3 0
BBX 1 4 1 8
BITMAP
80
80
80
80
ENDCHAR
STARTCHAR parenleft
ENCODING 40
SWIDTH 390 0
DWIDTH 6 0
BBX 4 14 1 -2
BITMAP
30
60
40
40
80
80
80
80
80
80
40
40
60
30
ENDCHAR
STARTCHAR parenright
ENCODING 41
SWIDTH 390 0
DWIDTH 6 0
BBX 4 14 1 -2
BITMAP
C0
60
20
20
10
10
10
10
10
10
20
20
60
C0
ENDCHAR
STARTCHAR asterisk
ENCODING 42
SWIDTH 500 0
DWIDTH 8 0
BBX 7 8 1 4
BITMAP
10
10
92
7C
38
D6
10
10
ENDCHAR
STARTCHAR plus
ENCODING 43
SWIDTH 837 0
DWIDTH 13 0
BBX 9 9 2 0
BITMAP
0800
0800
0800
0800
FF80
0800
0800
0800
0800
ENDCHAR
STARTCHAR comma
ENCODING 44
SWIDTH 317 0
DWIDTH 5 0
BBX 2 4 1 -2
BITMAP
40
40
40
80
ENDCHAR
STARTCHAR hyphen
ENCODING 45
SWIDTH 360 0
DWIDTH 6 0
BBX 4 1 1 4
BITMAP
F0
ENDCHAR
STARTCHAR period
ENCODING 46
SWIDTH 317 0
DWIDTH 5 0
BBX 1 2 2 0
BITMAP
80
80
ENDCHAR
STARTCHAR slash
ENCODING 47
SWIDTH 336 0
DWIDTH 5 0
BBX 5 13 0 -1
BITMAP
08
08
10
10
10
20
20
20
40
40
40
C0
80
ENDCHAR
STARTCHAR zero
ENCODING 48
SWIDTH 636 0
DWIDTH 10 0
BBX 8 12 1 0
BITMAP
3C
42
42
81
81
81
81
81
81
42
42
3C
ENDCHAR
STARTCHAR one
ENCODING 49
SWIDTH 636 0
DWIDTH 10 0
BBX 7 12 2 0
BITMAP
70
D0
10
10
10
10
10
10
10
10
10
FE
ENDCHAR
STARTCHAR two
ENCODING 50
SWIDTH 636 0
DWIDTH 10 0
BBX 7 12 1 0
BITMAP
78
C4
82
02
02
04
08
10
20
40
80
FE
ENDCHAR
STARTCHAR three
ENCODING 51
SWIDTH 636 0
DWIDTH 10 0
BBX 8 12 1 0
BITMAP
7C
83
01
01
03
3C
03
01
01
01
82
7C
ENDCHAR
STARTCHAR four
ENCODING 52
SWIDTH 636 0
DWIDTH 10 0
BBX 9 12 1 0
BITMAP
0600
0A00
0A00
1200
2200
4200
4200
8200
FF80
0200
0200
0200
ENDCHAR
STARTCHAR five
ENCODING 53
SWIDTH 636 0
DWIDTH 10 0
BBX 8 12 1 0
BITMAP
7E
40
40
40
7C
42
01
01
01
01
82
7C
ENDCHAR
STARTCHAR six
ENCODING 54
SWIDTH 636 0
DWIDTH 10 0
BBX 8 12 1 0
BITMAP
1C
62
40
80
BC
C2
81
81
81
81
42
3C
ENDCHAR
STARTCHAR seven
ENCODING 55
SWIDTH 636 0
DWIDTH 10 0
BBX 8 12 1 0
BITMAP
FF
01
02
02
04
04
08
08
08
10
10
20
ENDCHAR
STARTCHAR eight
ENCODING 56
SWIDTH 636 0
DWIDTH 10 0
BBX 8 12 1 0
BITMAP
3C
C3
81
81
C3
3C
C3
81
81
81
42
3C
ENDCHAR
STARTCHAR nine
ENCODING 57
SWIDTH 636 0
DWIDTH 10 0
BBX 8 12 1 0
BITMAP
3C
42
82
81
81
81
43
3D
01
02
46
38
ENDCHAR
STARTCHAR colon
ENCODING 58
SWIDTH 336 0
DWIDTH 5 0
BBX 1 8 2 0
BITMAP
80
80
00
00
00
00
80
80
ENDCHAR
STARTCHAR semicolon
ENCODING 59
SWIDTH 336 0
DWIDTH 5 0
BBX 2 10 1 -2
BITMAP
40
40
00
00
00
00
40
40
40
80
ENDCHAR
STARTCHAR less
ENCODING 60
SWIDTH 837 0
DWIDTH 13 0
BBX 10 9 2 0
BITMAP
0040
0380
1C00
7000
8000
7000
1C00
0380
0040
ENDCHAR
STARTCHAR equal
ENCODING 61
SWIDTH 837 0
DWIDTH 13 0
BBX 10 4 2 3
BITMAP
FFC0
0000
0000
FFC0
ENDCHAR
STARTCHAR greater
ENCODING 62
SWIDTH 837 0
DWIDTH 13 0
BBX 10 9 2 0
BITMAP
8000
7000
0E00
0380
0040
0380
0E00
7000
8000
ENDCHAR
STARTCHAR question
ENCODING 63
SWIDTH 530 0
DWIDTH 9 0
BBX 6 12 1 0
BITMAP
78
84
04
04
0C
18
30
20
20
00
20
20
ENDCHAR
STARTCHAR at
ENCODING 64
SWIDTH 1000 0
DWIDTH 16 0
BBX 14 14 1 -2
BITMAP
0FC0
1830
2018
47A8
C864
9024
9024
9024
9024
C868
47B0
2000
1830
07E0
ENDCHAR
STARTCHAR A
ENCODING 65
SWIDTH 684 0
DWIDTH 11 0
BBX 11 12 0 0
BITMAP
0400
0400
0A00
0A00
1100
1100
2080
2080
3F80
4040
4040
8020
ENDCHAR
STARTCHAR B
ENCODING 66
SWIDTH 686 0
DWIDTH 11 0
BBX 9 12 1 0
BITMAP
FE00
8180
8080
8080
8180
FF00
8180
8080
8080
8080
8100
FE00
ENDCHAR
STARTCHAR C
ENCODING 67
SWIDTH 698 0
DWIDTH 11 0
BBX 9 12 1 0
BITMAP
1F00
2180
4000
8000
8000
8000
8000
8000
8000
4000
2180
1F00
ENDCHAR
STARTCHAR D
ENCODING 68
SWIDTH 770 0
DWIDTH 12 0
BBX 10 12 1 0
BITMAP
FE00
8300
8080
8040
8040
8040
8040
8040
8040
8080
8300
FE00
ENDCHAR
STARTCHAR E
ENCODING 69
SWIDTH 631 0
DWIDTH 10 0
BBX 8 12 1 0
BITMAP
FF
80
80
80
80
FF
80
80
80
80
80
FF
ENDCHAR
STARTCHAR F
ENCODING 70
SWIDTH 575 0
DWIDTH 9 0
BBX 7 12 1 0
BITMAP
FE
80
80
80
80
FC
80
80
80
80
80
80
ENDCHAR
STARTCHAR G
ENCODING 71
SWIDTH 774 0
DWIDTH 12 0
BBX 10 12 1 0
BITMAP
1F80
20C0
4040
8000
8000
8000
83C0
8040
8040
4040
2040
1F80
ENDCHAR
STARTCHAR H
ENCODING 72
SWIDTH 751 0
DWIDTH 12 0
BBX 10 12 1 0
BITMAP
8040
8040
8040
8040
8040
FFC0
8040
8040
8040
8040
8040
8040
ENDCHAR
STARTCHAR I
ENCODING 73
SWIDTH 294 0
DWIDTH 5 0
BBX 1 12 2 0
BITMAP
80
80
80
80
80
80
80
80
80
80
80
80
ENDCHAR
STARTCHAR J
ENCODING 74
SWIDTH 294 0
DWIDTH 5 0
BBX 3 15 0 -3
BITMAP
20
20
20
20
20
20
20
20
20
20
20
20
20
20
C0
ENDCHAR
STARTCHAR K
ENCODING 75
SWIDTH 655 0
DWIDTH 10 0
BBX 8 12 1 0
BITMAP
81
82
84
88
90
E0
A0
90
88
84
82
81
ENDCHAR
STARTCHAR L
ENCODING 76
SWIDTH 557 0
DWIDTH 9 0
BBX 7 12 1 0
BITMAP
80
80
80
80
80
80
80
80
80
80
80
FE
ENDCHAR
STARTCHAR M
ENCODING 77
SWIDTH 862 0
DWIDTH 13 0
BBX 11 12 1 0
BITMAP
C060
C060
A0A0
A0A0
A0A0
9120
9120
8A20
8A20
8420
8020
8020
ENDCHAR
STARTCHAR N
ENCODING 78
SWIDTH 748 0
DWIDTH 12 0
BBX 10 12 1 0
BITMAP
C040
A040
A040
9040
8840
8840
8440
8240
8240
8140
8140
80C0
ENDCHAR
STARTCHAR O
ENCODING 79
SWIDTH 787 0
DWIDTH 13 0
BBX 11 12 1 0
BITMAP
1F00
2080
4040
8020
8020
8020
8020
8020
8020
4040
2080
1F00
ENDCHAR
STARTCHAR P
ENCODING 80
SWIDTH 603 0
DWIDTH 10 0
BBX 8 12 1 0
BITMAP
FC
82
81
81
81
82
FC
80
80
80
80
80
ENDCHAR
STARTCHAR Q
ENCODING 81
SWIDTH 787 0
DWIDTH 13 0
BBX 11 14 1 -2
BITMAP
1F00
2080
4040
8020
8020
8020
8020
8020
8020
4040
20C0
1F00
0080
0040
ENDCHAR
STARTCHAR R
ENCODING 82
SWIDTH 694 0
DWIDTH 11 0
BBX 9 12 1 0
BITMAP
FC00
8200
8100
8100
8100
8200
FE00
8200
8100
8100
8080
8080
ENDCHAR
STARTCHAR S
ENCODING 83
SWIDTH 634 0
DWIDTH 10 0
BBX 8 12 1 0
BITMAP
3C
C6
80
80
80
70
1E
03
01
81
C3
7C
ENDCHAR
STARTCHAR T
ENCODING 84
SWIDTH 610 0
DWIDTH 9 0
BBX 9 12 0 0
BITMAP
FF80
0800
0800
0800
0800
0800
0800
0800
0800
0800
0800
0800
ENDCHAR
STARTCHAR U
ENCODING 85
SWIDTH 731 0
DWIDTH 12 0
BBX 10 12 1 0
BITMAP
8040
8040
8040
8040
8040
8040
8040
8040
8040
8040
4080
3F00
ENDCHAR
STARTCHAR V
ENCODING 86
SWIDTH 684 0
DWIDTH 11 0
BBX 11 12 0 0
BITMAP
8020
8020
4040
4040
2080
2080
1100
1100
1100
0A00
0A00
0400
ENDCHAR
STARTCHAR W
ENCODING 87
SWIDTH 988 0
DWIDTH 17 0
BBX 15 12 1 0
BITMAP
8102
8102
4284
4284
4284
2288
2448
2448
1450
1450
0820
0820
ENDCHAR
STARTCHAR X
ENCODING 88
SWIDTH 685 0
DWIDTH 11 0
BBX 9 12 1 0
BITMAP
8080
4100
2200
2200
1400
0800
1400
1400
2200
4100
4100
8080
ENDCHAR
STARTCHAR Y
ENCODING 89
SWIDTH 610 0
DWIDTH 9 0
BBX 9 12 0 0
BITMAP
8080
4100
2200
2200
1400
0800
0800
0800
0800
0800
0800
0800
ENDCHAR
STARTCHAR Z
ENCODING 90
SWIDTH 685 0
DWIDTH 12 0
BBX 10 12 1 0
BITMAP
FFC0
0040
0080
0100
0200
0400
0800
1000
2000
4000
8000
FFC0
ENDCHAR
STARTCHAR bracketleft
ENCODING 91
SWIDTH 390 0
DWIDTH 6 0
BBX 3 14 1 -2
BITMAP
E0
80
80
80
80
80
80
80
80
80
80
80
80
E0
ENDCHAR
STARTCHAR backslash
ENCODING 92
SWIDTH 336 0
DWIDTH 5 0
BBX 5 13 0 -1
BITMAP
80
C0
40
40
40
20
20
20
10
10
10
08
08
ENDCHAR
STARTCHAR bracketright
ENCODING 93
SWIDTH 390 0
DWIDTH 6 0
BBX 3 14 2 -2
BITMAP
E0
20
20
20
20
20
20
20
20
20
20
20
20
E0
ENDCHAR
STARTCHAR asciicircum
ENCODING 94
SWIDTH 837 0
DWIDTH 13 0
BBX 8 4 3 8
BITMAP
18
3C
42
81
ENDCHAR
STARTCHAR underscore
ENCODING 95
SWIDTH 500 0
DWIDTH 8 0
BBX 8 1 0 -4
BITMAP
FF
ENDCHAR
STARTCHAR grave
ENCODING 96
SWIDTH 500 0
DWIDTH 8 0
BBX 4 3 1 10
BITMAP
C0
60
30
ENDCHAR
STARTCHAR a
ENCODING 97
SWIDTH 612 0
DWIDTH 9 0
BBX 7 9 1 0
BITMAP
3C
46
02
7E
C2
82
82
C6
7A
ENDCHAR
STARTCHAR b
ENCODING 98
SWIDTH 634 0
DWIDTH 10 0
BBX 8 12 1 0
BITMAP
80
80
80
BC
C2
81
81
81
81
81
C2
BC
ENDCHAR
STARTCHAR c
ENCODING 99
SWIDTH 549 0
DWIDTH 9 0
BBX 7 9 1 0
BITMAP
3C
42
80
80
80
80
80
42
3C
ENDCHAR
STARTCHAR d
ENCODING 100
SWIDTH 634 0
DWIDTH 10 0
BBX 8 12 1 0
BITMAP
01
01
01
3D
43
81
81
81
81
81
43
3D
ENDCHAR
STARTCHAR e
ENCODING 101
SWIDTH 615 0
DWIDTH 9 0
BBX 7 9 1 0
BITMAP
38
44
82
82
FE
80
80
42
3C
ENDCHAR
STARTCHAR f
ENCODING 102
SWIDTH 352 0
DWIDTH 6 0
BBX 5 12 1 0
BITMAP
38
40
40
F0
40
40
40
40
40
40
40
40
ENDCHAR
STARTCHAR g
ENCODING 103
SWIDTH 634 0
DWIDTH 10 0
BBX 8 12 1 -3
BITMAP
3D
43
81
81
81
81
81
43
3D
01
42
3C
ENDCHAR
STARTCHAR h
ENCODING 104
SWIDTH 633 0
DWIDTH 10 0
BBX 8 12 1 0
BITMAP
80
80
80
BC
C2
81
81
81
81
81
81
81
ENDCHAR
STARTCHAR i
ENCODING 105
SWIDTH 277 0
DWIDTH 3 0
BBX 1 12 1 0
BITMAP
80
80
00
80
80
80
80
80
80
80
80
80
ENDCHAR
STARTCHAR j
ENCODING 106
SWIDTH 277 0
DWIDTH 3 0
BBX 3 15 -1 -3
BITMAP
20
20
00
20
20
20
20
20
20
20
20
20
20
20
C0
ENDCHAR
STARTCHAR k
ENCODING 107
SWIDTH 579 0
DWIDTH 9 0
BBX 7 12 1 0
BITMAP
80
80
80
82
84
88
90
E0
90
88
84
82
ENDCHAR
STARTCHAR l
ENCODING 108
SWIDTH 277 0
DWIDTH 3 0
BBX 1 12 1 0
BITMAP
80
80
80
80
80
80
80
80
80
80
80
80
ENDCHAR
STARTCHAR m
ENCODING 109
SWIDTH 974 0
DWIDTH 15 0
BBX 13 9 1 0
BITMAP
BCF0
C718
8208
8208
8208
8208
8208
8208
8208
ENDCHAR
STARTCHAR n
ENCODING 110
SWIDTH 633 0
DWIDTH 10 0
BBX 8 9 1 0
BITMAP
BC
C2
81
81
81
81
81
81
81
ENDCHAR
STARTCHAR o
ENCODING 111
SWIDTH 611 0
DWIDTH 10 0
BBX 8 9 1 0
BITMAP
3C
42
81
81
81
81
81
42
3C
ENDCHAR
STARTCHAR p
ENCODING 112
SWIDTH 634 0
DWIDTH 10 0
BBX 8 12 1 -3
BITMAP
BC
C2
81
81
81
81
81
C2
BC
80
80
80
ENDCHAR
STARTCHAR q
ENCODING 113
SWIDTH 634 0
DWIDTH 10 0
BBX 8 12 1 -3
BITMAP
3D
43
81
81
81
81
81
43
3D
01
01
01
ENDCHAR
STARTCHAR r
ENCODING 114
SWIDTH 411 0
DWIDTH 7 0
BBX 5 9 1 0
BITMAP
B8
C0
80
80
80
80
80
80
80
ENDCHAR
STARTCHAR s
ENCODING 115
SWIDTH 520 0
DWIDTH 9 0
BBX 7 9 1 0
BITMAP
7C
82
80
C0
78
06
02
82
7C
ENDCHAR
STARTCHAR t
ENCODING 116
SWIDTH 392 0
DWIDTH 6 0
BBX 5 11 0 0
BITMAP
40
40
F8
40
40
40
40
40
40
40
38
ENDCHAR
STARTCHAR u
ENCODING 117
SWIDTH 633 0
DWIDTH 10 0
BBX 8 9 1 0
BITMAP
81
81
81
81
81
81
81
43
3D
ENDCHAR
STARTCHAR v
ENCODING 118
SWIDTH 591 0
DWIDTH 9 0
BBX 9 9 0 0
BITMAP
8080
8080
4100
4100
2200
2200
1400
1C00
0800
ENDCHAR
STARTCHAR w
ENCODING 119
SWIDTH 817 0
DWIDTH 13 0
BBX 13 9 0 0
BITMAP
8208
8208
4510
4510
4890
28A0
28A0
1040
1040
ENDCHAR
STARTCHAR x
ENCODING 120
SWIDTH 591 0
DWIDTH 10 0
BBX 8 9 1 0
BITMAP
C3
42
24
24
18
24
24
42
C3
ENDCHAR
STARTCHAR y
ENCODING 121
SWIDTH 591 0
DWIDTH 9 0
BBX 9 12 0 -3
BITMAP
8080
4100
4100
2100
2200
2200
1400
1400
0C00
0800
0800
7000
ENDCHAR
STARTCHAR z
ENCODING 122
SWIDTH 524 0
DWIDTH 9 0
BBX 7 9 1 0
BITMAP
FE
02
04
08
10
20
40
80
FE
ENDCHAR
STARTCHAR braceleft
ENCODING 123
SWIDTH 636 0
DWIDTH 10 0
BBX 5 15 2 -3
BITMAP
18
20
20
20
20
20
20
C0
20
20
20
20
20
20
18
ENDCHAR
STARTCHAR bar
ENCODING 124
SWIDTH 336 0
DWIDTH 5 0
BBX 1 16 2 -4
BITMAP
80
80
80
80
80
80
80
80
80
80
80
80
80
80
80
80
ENDCHAR
STARTCHAR braceright
ENCODING 125
SWIDTH 636 0
DWIDTH 10 0
BBX 5 15 2 -3
BITMAP
C0
20
20
20
20
20
20
18
20
20
20
20
20
20
C0
ENDCHAR
STARTCHAR asciitilde
ENCODING 126
SWIDTH 837 0
DWIDTH 13 0
BBX 10 2 2 4
BITMAP
7840
8780
ENDCHAR
STARTCHAR nonbreakingspace
ENCODING 160
SWIDTH 636 0
DWIDTH 10 0
BBX 1 1 0 0
BITMAP
00
ENDCHAR
STARTCHAR exclamdown
ENCODING 161
SWIDTH 400 0
DWIDTH 6 0
BBX 1 12 3 0
BITMAP
80
80
00
00
80
80
80
80
80
80
80
80
ENDCHAR
STARTCHAR cent
ENCODING 162
SWIDTH 636 0
DWIDTH 10 0
BBX 7 13 1 -2
BITMAP
08
08
3C
6A
88
88
88
88
88
6A
3C
08
08
ENDCHAR
STARTCHAR sterling
ENCODING 163
SWIDTH 636 0
DWIDTH 10 0
BBX 7 12 1 0
BITMAP
1C
32
20
20
20
20
FC
20
20
20
20
FE
ENDCHAR
STARTCHAR currency
ENCODING 164
SWIDTH 636 0
DWIDTH 10 0
BBX 9 9 1 0
BITMAP
8080
7F00
6300
4100
4100
4100
6300
7F00
8080
ENDCHAR
STARTCHAR yen
ENCODING 165
SWIDTH 636 0
DWIDTH 10 0
BBX 9 12 0 0
BITMAP
8080
4100
4100
2200
1400
7700
0800
0800
7F00
0800
0800
0800
ENDCHAR
STARTCHAR brokenbar
ENCODING 166
SWIDTH 336 0
DWIDTH 5 0
BBX 1 14 2 -3
BITMAP
80
80
80
80
80
80
00
00
80
80
80
80
80
80
ENDCHAR
STARTCHAR section
ENCODING 167
SWIDTH 500 0
DWIDTH 8 0
BBX 7 14 1 -2
BITMAP
3C
40
40
60
78
8C
82
C2
62
3C
0C
04
04
78
ENDCHAR
STARTCHAR dieresis
ENCODING 168
SWIDTH 500 0
DWIDTH 8 0
BBX 4 2 2 10
BITMAP
90
90
ENDCHAR
STARTCHAR copyright
ENCODING 169
SWIDTH 1000 0
DWIDTH 16 0
BBX 12 12 2 0
BITMAP
0F00
30C0
4F20
4820
9010
9010
9010
9010
4820
4F20
30C0
0F00
ENDCHAR
STARTCHAR ordfeminine
ENCODING 170
SWIDTH 471 0
DWIDTH 8 0
BBX 6 8 1 4
BITMAP
78
04
7C
84
8C
74
00
FC
ENDCHAR
STARTCHAR guillemotleft
ENCODING 171
SWIDTH 611 0
DWIDTH 10 0
BBX 8 7 1 1
BITMAP
11
33
44
88
44
33
11
ENDCHAR
STARTCHAR logicalnot
ENCODING 172
SWIDTH 837 0
DWIDTH 13 0
BBX 10 5 2 2
BITMAP
FFC0
0040
0040
0040
0040
ENDCHAR
STARTCHAR sfthyphen
ENCODING 173
SWIDTH 360 0
DWIDTH 6 0
BBX 4 1 1 4
BITMAP
F0
ENDCHAR
STARTCHAR registered
ENCODING 174
SWIDTH 1000 0
DWIDTH 16 0
BBX 12 12 2 0
BITMAP
0F00
30C0
4F20
48A0
8890
8F10
8910
8990
48A0
48E0
30C0
0F00
ENDCHAR
STARTCHAR macron
ENCODING 175
SWIDTH 500 0
DWIDTH 8 0
BBX 5 1 2 11
BITMAP
F8
ENDCHAR
STARTCHAR degree
ENCODING 176
SWIDTH 500 0
DWIDTH 8 0
BBX 5 5 2 7
BITMAP
70
88
88
88
70
ENDCHAR
STARTCHAR plusminus
ENCODING 177
SWIDTH 837 0
DWIDTH 13 0
BBX 9 10 2 0
BITMAP
0800
0800
0800
FF80
0800
0800
0800
0000
0000
FF80
ENDCHAR
STARTCHAR twosuperior
ENCODING 178
SWIDTH 400 0
DWIDTH 6 0
BBX 5 7 1 5
BITMAP
F0
08
08
10
20
40
F8
ENDCHAR
STARTCHAR threesuperior
ENCODING 179
SWIDTH 400 0
DWIDTH 6 0
BBX 5 7 1 5
BITMAP
F0
08
08
70
08
08
F0
ENDCHAR
STARTCHAR acute
ENCODING 180
SWIDTH 500 0
DWIDTH 8 0
BBX 4 3 3 10
BITMAP
30
60
C0
ENDCHAR
STARTCHAR mu
ENCODING 181
SWIDTH 636 0
DWIDTH 10 0
BBX 9 12 1 -3
BITMAP
8100
8100
8100
8100
8100
8100
8100
C300
BD80
8000
8000
8000
ENDCHAR
STARTCHAR paragraph
ENCODING 182
SWIDTH 636 0
DWIDTH 10 0
BBX 7 14 1 -2
BITMAP
3E
7A
FA
FA
FA
7A
3A
0A
0A
0A
0A
0A
0A
0A
ENDCHAR
STARTCHAR periodcentered
ENCODING 183
SWIDTH 317 0
DWIDTH 5 0
BBX 1 2 2 5
BITMAP
80
80
ENDCHAR
STARTCHAR cedilla
ENCODING 184
SWIDTH 500 0
DWIDTH 8 0
BBX 3 3 2 -3
BITMAP
40
20
E0
ENDCHAR
STARTCHAR onesuperior
ENCODING 185
SWIDTH 400 0
DWIDTH 6 0
BBX 5 7 1 5
BITMAP
E0
20
20
20
20
20
F8
ENDCHAR
STARTCHAR ordmasculine
ENCODING 186
SWIDTH 471 0
DWIDTH 8 0
BBX 6 8 1 4
BITMAP
78
CC
84
84
CC
78
00
FC
ENDCHAR
STARTCHAR guillemotright
ENCODING 187
SWIDTH 611 0
DWIDTH 10 0
BBX 8 7 2 1
BITMAP
88
CC
22
11
22
CC
88
ENDCHAR
STARTCHAR onequarter
ENCODING 188
SWIDTH 969 0
DWIDTH 16 0
BBX 13 12 1 0
BITMAP
E020
2040
2040
2080
2100
2110
FA30
0650
0450
0890
18F8
1010
ENDCHAR
STARTCHAR onehalf
ENCODING 189
SWIDTH 969 0
DWIDTH 16 0
BBX 14 12 1 0
BITMAP
E020
2040
2040
2080
2100
2178
FA04
0604
0408
0810
1820
107C
ENDCHAR
STARTCHAR threequarters
ENCODING 190
SWIDTH 969 0
DWIDTH 16 0
BBX 13 12 1 0
BITMAP
F020
0840
0840
7080
0900
0910
F230
0650
0450
0890
18F8
1010
ENDCHAR
STARTCHAR questiondown
ENCODING 191
SWIDTH 530 0
DWIDTH 9 0
BBX 6 12 2 0
BITMAP
10
10
00
10
10
30
60
C0
80
80
84
78
ENDCHAR
STARTCHAR Agrave
ENCODING 192
SWIDTH 684 0
DWIDTH 11 0
BBX 11 15 0 0
BITMAP
0800
0400
0000
0400
0400
0A00
0A00
1100
1100
2080
2080
3F80
4040
4040
8020
ENDCHAR
STARTCHAR Aacute
ENCODING 193
SWIDTH 684 0
DWIDTH 11 0
BBX 11 15 0 0
BITMAP
0200
0400
0000
0400
0400
0A00
0A00
1100
1100
2080
2080
3F80
4040
4040
8020
ENDCHAR
STARTCHAR Acircumflex
ENCODING 194
SWIDTH 684 0
DWIDTH 11 0
BBX 11 15 0 0
BITMAP
0600
0900
0000
0400
0400
0A00
0A00
1100
1100
2080
2080
3F80
4040
4040
8020
ENDCHAR
STARTCHAR Atilde
ENCODING 195
SWIDTH 684 0
DWIDTH 11 0
BBX 11 15 0 0
BITMAP
1A00
1600
0000
0400
0400
0A00
0A00
1100
1100
2080
2080
3F80
4040
4040
8020
ENDCHAR
STARTCHAR Adieresis
ENCODING 196
SWIDTH 684 0
DWIDTH 11 0
BBX 11 15 0 0
BITMAP
1200
1200
0000
0400
0400
0A00
0A00
1100
1100
2080
2080
3F80
4040
4040
8020
ENDCHAR
STARTCHAR Aring
ENCODING 197
SWIDTH 684 0
DWIDTH 11 0
BBX 11 15 0 0
BITMAP
0E00
1100
1100
0E00
0A00
1100
1100
1100
2080
2080
4040
7FC0
4040
8020
8020
ENDCHAR
STARTCHAR AE
ENCODING 198
SWIDTH 974 0
DWIDTH 16 0
BBX 15 12 0 0
BITMAP
07FE
0900
0900
1100
1100
11FE
2100
2100
7F00
4100
4100
81FE
ENDCHAR
STARTCHAR Ccedilla
ENCODING 199
SWIDTH 698 0
DWIDTH 11 0
BBX 9 15 1 -3
BITMAP
1F00
2180
4000
8000
8000
8000
8000
8000
8000
4000
2180
1F00
0400
0400
1C00
ENDCHAR
STARTCHAR Egrave
ENCODING 200
SWIDTH 631 0
DWIDTH 10 0
BBX 8 15 1 0
BITMAP
10
08
00
FF
80
80
80
80
FF
80
80
80
80
80
FF
ENDCHAR
STARTCHAR Eacute
ENCODING 201
SWIDTH 631 0
DWIDTH 10 0
BBX 8 15 1 0
BITMAP
0C
08
00
FF
80
80
80
80
FF
80
80
80
80
80
FF
ENDCHAR
STARTCHAR Ecircumflex
ENCODING 202
SWIDTH 631 0
DWIDTH 10 0
BBX 8 15 1 0
BITMAP
0C
12
00
FF
80
80
80
80
FF
80
80
80
80
80
FF
ENDCHAR
STARTCHAR Edieresis
ENCODING 203
SWIDTH 631 0
DWIDTH 10 0
BBX 8 15 1 0
BITMAP
24
24
00
FF
80
80
80
80
FF
80
80
80
80
80
FF
ENDCHAR
STARTCHAR Igrave
ENCODING 204
SWIDTH 294 0
DWIDTH 5 0
BBX 2 15 1 0
BITMAP
80
40
00
40
40
40
40
40
40
40
40
40
40
40
40
ENDCHAR
STARTCHAR Iacute
ENCODING 205
SWIDTH 294 0
DWIDTH 5 0
BBX 2 15 2 0
BITMAP
40
80
00
80
80
80
80
80
80
80
80
80
80
80
80
ENDCHAR
STARTCHAR Icircumflex
ENCODING 206
SWIDTH 294 0
DWIDTH 5 0
BBX 4 15 1 0
BITMAP
60
90
00
40
40
40
40
40
40
40
40
40
40
40
40
ENDCHAR
STARTCHAR Idieresis
ENCODING 207
SWIDTH 294 0
DWIDTH 5 0
BBX 4 15 0 0
BITMAP
90
90
00
20
20
20
20
20
20
20
20
20
20
20
20
ENDCHAR
STARTCHAR Eth
ENCODING 208
SWIDTH 774 0
DWIDTH 13 0
BBX 12 12 0 0
BITMAP
3F80
20C0
2020
2010
2010
FC10
2010
2010
2010
2020
20C0
3F80
ENDCHAR
STARTCHAR Ntilde
ENCODING 209
SWIDTH 748 0
DWIDTH 12 0
BBX 10 15 1 0
BITMAP
3A00
2E00
0000
C040
A040
A040
9040
8840
8840
8440
8240
8240
8140
8140
80C0
ENDCHAR
STARTCHAR Ograve
ENCODING 210
SWIDTH 787 0
DWIDTH 13 0
BBX 11 15 1 0
BITMAP
0800
0400
0000
1F00
2080
4040
8020
8020
8020
8020
8020
8020
4040
2080
1F00
ENDCHAR
STARTCHAR Oacute
ENCODING 211
SWIDTH 787 0
DWIDTH 13 0
BBX 11 15 1 0
BITMAP
0600
0400
0000
1F00
2080
4040
8020
8020
8020
8020
8020
8020
4040
2080
1F00
ENDCHAR
STARTCHAR Ocircumflex
ENCODING 212
SWIDTH 787 0
DWIDTH 13 0
BBX 11 15 1 0
BITMAP
0600
0900
0000
1F00
2080
4040
8020
8020
8020
8020
8020
8020
4040
2080
1F00
ENDCHAR
STARTCHAR Otilde
ENCODING 213
SWIDTH 787 0
DWIDTH 13 0
BBX 11 15 1 0
BITMAP
1A00
2600
0000
1F00
2080
4040
8020
8020
8020
8020
8020
8020
4040
2080
1F00
ENDCHAR
STARTCHAR Odieresis
ENCODING 214
SWIDTH 787 0
DWIDTH 13 0
BBX 11 15 1 0
BITMAP
1200
1200
0000
1F00
2080
4040
8020
8020
8020
8020
8020
8020
4040
2080
1F00
ENDCHAR
STARTCHAR multiply
ENCODING 215
SWIDTH 837 0
DWIDTH 13 0
BBX 9 9 2 1
BITMAP
8080
4100
2200
1400
0800
1400
2200
4100
8080
ENDCHAR
STARTCHAR Oslash
ENCODING 216
SWIDTH 787 0
DWIDTH 13 0
BBX 11 12 1 0
BITMAP
1F20
20C0
40C0
8120
8220
8420
8420
8820
9020
6040
6080
9F00
ENDCHAR
STARTCHAR Ugrave
ENCODING 217
SWIDTH 731 0
DWIDTH 12 0
BBX 10 15 1 0
BITMAP
1800
0C00
0000
8040
8040
8040
8040
8040
8040
8040
8040
8040
8040
4080
3F00
ENDCHAR
STARTCHAR Uacute
ENCODING 218
SWIDTH 731 0
DWIDTH 12 0
BBX 10 15 1 0
BITMAP
0400
0C00
0000
8040
8040
8040
8040
8040
8040
8040
8040
8040
8040
4080
3F00
ENDCHAR
STARTCHAR Ucircumflex
ENCODING 219
SWIDTH 731 0
DWIDTH 12 0
BBX 10 15 1 0
BITMAP
0E00
1A00
0000
8040
8040
8040
8040
8040
8040
8040
8040
8040
8040
4080
3F00
ENDCHAR
STARTCHAR Udieresis
ENCODING 220
SWIDTH 731 0
DWIDTH 12 0
BBX 10 15 1 0
BITMAP
1200
1200
0000
8040
8040
8040
8040
8040
8040
8040
8040
8040
8040
4080
3F00
ENDCHAR
STARTCHAR Yacute
ENCODING 221
SWIDTH 610 0
DWIDTH 9 0
BBX 9 15 0 0
BITMAP
0400
0C00
0000
8080
4100
2200
2200
1400
0800
0800
0800
0800
0800
0800
0800
ENDCHAR
STARTCHAR Thorn
ENCODING 222
SWIDTH 604 0
DWIDTH 10 0
BBX 8 12 1 0
BITMAP
80
80
FC
82
81
81
81
82
FC
80
80
80
ENDCHAR
STARTCHAR germandbls
ENCODING 223
SWIDTH 629 0
DWIDTH 10 0
BBX 8 12 1 0
BITMAP
7C
C6
82
8E
90
90
98
8E
83
81
81
BE
ENDCHAR
STARTCHAR agrave
ENCODING 224
SWIDTH 612 0
DWIDTH 9 0
BBX 7 13 1 0
BITMAP
60
20
10
00
3C
46
02
7E
C2
82
82
C6
7A
ENDCHAR
STARTCHAR aacute
ENCODING 225
SWIDTH 612 0
DWIDTH 9 0
BBX 7 13 1 0
BITMAP
04
08
10
00
3C
46
02
7E
C2
82
82
C6
7A
ENDCHAR
STARTCHAR acircumflex
ENCODING 226
SWIDTH 612 0
DWIDTH 9 0
BBX 7 13 1 0
BITMAP
18
1C
24
00
3C
46
02
7E
C2
82
82
C6
7A
ENDCHAR
STARTCHAR atilde
ENCODING 227
SWIDTH 612 0
DWIDTH 9 0
BBX 7 12 1 0
BITMAP
64
58
00
3C
46
02
7E
C2
82
82
C6
7A
ENDCHAR
STARTCHAR adieresis
ENCODING 228
SWIDTH 612 0
DWIDTH 9 0
BBX 7 12 1 0
BITMAP
24
24
00
3C
46
02
7E
C2
82
82
C6
7A
ENDCHAR
STARTCHAR aring
ENCODING 229
SWIDTH 612 0
DWIDTH 9 0
BBX 7 14 1 0
BITMAP
38
24
24
38
00
3C
46
02
7E
C2
82
82
C6
7A
ENDCHAR
STARTCHAR ae
ENCODING 230
SWIDTH 981 0
DWIDTH 16 0
BBX 14 9 1 0
BITMAP
3DF0
4708
0204
7E04
C3FC
8200
8200
C504
78F8
ENDCHAR
STARTCHAR ccedilla
ENCODING 231
SWIDTH 549 0
DWIDTH 9 0
BBX 7 12 1 -3
BITMAP
3C
42
80
80
80
80
80
42
3C
08
08
38
ENDCHAR
STARTCHAR egrave
ENCODING 232
SWIDTH 615 0
DWIDTH 9 0
BBX 7 13 1 0
BITMAP
20
30
18
00
38
44
82
82
FE
80
80
42
3C
ENDCHAR
STARTCHAR eacute
ENCODING 233
SWIDTH 615 0
DWIDTH 9 0
BBX 7 13 1 0
BITMAP
06
0C
18
00
38
44
82
82
FE
80
80
42
3C
ENDCHAR
STARTCHAR ecircumflex
ENCODING 234
SWIDTH 615 0
DWIDTH 9 0
BBX 7 13 1 0
BITMAP
08
14
32
00
38
44
82
82
FE
80
80
42
3C
ENDCHAR
STARTCHAR edieresis
ENCODING 235
SWIDTH 615 0
DWIDTH 9 0
BBX 7 12 1 0
BITMAP
24
24
00
38
44
82
82
FE
80
80
42
3C
ENDCHAR
STARTCHAR igrave
ENCODING 236
SWIDTH 277 0
DWIDTH 3 0
BBX 3 13 0 0
BITMAP
80
40
60
00
40
40
40
40
40
40
40
40
40
ENDCHAR
STARTCHAR iacute
ENCODING 237
SWIDTH 277 0
DWIDTH 3 0
BBX 4 13 1 0
BITMAP
30
60
40
00
80
80
80
80
80
80
80
80
80
ENDCHAR
STARTCHAR icircumflex
ENCODING 238
SWIDTH 277 0
DWIDTH 3 0
BBX 4 13 1 0
BITMAP
60
A0
90
00
80
80
80
80
80
80
80
80
80
ENDCHAR
STARTCHAR idieresis
ENCODING 239
SWIDTH 277 0
DWIDTH 3 0
BBX 4 12 0 0
BITMAP
90
90
00
40
40
40
40
40
40
40
40
40
ENDCHAR
STARTCHAR eth
ENCODING 240
SWIDTH 611 0
DWIDTH 10 0
BBX 8 12 1 0
BITMAP
6C
30
CC
3E
43
81
81
81
81
81
42
3C
ENDCHAR
STARTCHAR ntilde
ENCODING 241
SWIDTH 633 0
DWIDTH 10 0
BBX 8 12 1 0
BITMAP
34
4C
00
BC
C2
81
81
81
81
81
81
81
ENDCHAR
STARTCHAR ograve
ENCODING 242
SWIDTH 611 0
DWIDTH 10 0
BBX 8 13 1 0
BITMAP
60
30
18
00
3C
42
81
81
81
81
81
42
3C
ENDCHAR
STARTCHAR oacute
ENCODING 243
SWIDTH 611 0
DWIDTH 10 0
BBX 8 13 1 0
BITMAP
04
0C
18
00
3C
42
81
81
81
81
81
42
3C
ENDCHAR
STARTCHAR ocircumflex
ENCODING 244
SWIDTH 611 0
DWIDTH 10 0
BBX 8 13 1 0
BITMAP
08
14
26
00
3C
42
81
81
81
81
81
42
3C
ENDCHAR
STARTCHAR otilde
ENCODING 245
SWIDTH 611 0
DWIDTH 10 0
BBX 8 12 1 0
BITMAP
64
58
00
3C
42
81
81
81
81
81
42
3C
ENDCHAR
STARTCHAR odieresis
ENCODING 246
SWIDTH 611 0
DWIDTH 10 0
BBX 8 12 1 0
BITMAP
24
24
00
3C
42
81
81
81
81
81
42
3C
ENDCHAR
STARTCHAR divide
ENCODING 247
SWIDTH 837 0
DWIDTH 13 0
BBX 10 7 2 1
BITMAP
0C00
0C00
0000
FFC0
0000
0C00
0C00
ENDCHAR
STARTCHAR oslash
ENCODING 248
SWIDTH 611 0
DWIDTH 10 0
BBX 8 9 1 0
BITMAP
3D
42
85
89
89
91
A1
42
BC
ENDCHAR
STARTCHAR ugrave
ENCODING 249
SWIDTH 633 0
DWIDTH 10 0
BBX 8 13 1 0
BITMAP
60
30
18
00
81
81
81
81
81
81
81
43
3D
ENDCHAR
STARTCHAR uacute
ENCODING 250
SWIDTH 633 0
DWIDTH 10 0
BBX 8 13 1 0
BITMAP
06
0C
18
00
81
81
81
81
81
81
81
43
3D
ENDCHAR
STARTCHAR ucircumflex
ENCODING 251
SWIDTH 633 0
DWIDTH 10 0
BBX 8 13 1 0
BITMAP
08
14
22
00
81
81
81
81
81
81
81
43
3D
ENDCHAR
STARTCHAR udieresis
ENCODING 252
SWIDTH 633 0
DWIDTH 10 0
BBX 8 12 1 0
BITMAP
24
24
00
81
81
81
81
81
81
81
43
3D
ENDCHAR
STARTCHAR yacute
ENCODING 253
SWIDTH 591 0
DWIDTH 9 0
BBX 9 16 0 -3
BITMAP
0200
0400
0800
0000
8080
4100
4100
2100
2200
2200
1400
1400
0C00
0800
0800
7000
ENDCHAR
STARTCHAR thorn
ENCODING 254
SWIDTH 634 0
DWIDTH 10 0
BBX 8 15 1 -3
BITMAP
80
80
80
BC
C2
81
81
81
81
81
C2
BC
80
80
80
ENDCHAR
STARTCHAR ydieresis
ENCODING 255
SWIDTH 591 0
DWIDTH 9 0
BBX 9 15 0 -3
BITMAP
1200
1200
0000
8080
4100
4100
2100
2200
2200
1400
1400
0C00
0800
0800
7000
ENDCHAR
STARTCHAR Cacute
ENCODING 262
SWIDTH 698 0
DWIDTH 11 0
BBX 9 15 1 0
BITMAP
0200
0400
0000
1F00
2180
4000
8000
8000
8000
8000
8000
8000
4000
2180
1F00
ENDCHAR
STARTCHAR cacute
ENCODING 263
SWIDTH 549 0
DWIDTH 9 0
BBX 7 13 1 0
BITMAP
06
0C
18
00
3C
42
80
80
80
80
80
42
3C
ENDCHAR
STARTCHAR Ccaron
ENCODING 268
SWIDTH 698 0
DWIDTH 11 0
BBX 9 15 1 0
BITMAP
0900
0600
0000
1F00
2180
4000
8000
8000
8000
8000
8000
8000
4000
2180
1F00
ENDCHAR
STARTCHAR ccaron
ENCODING 269
SWIDTH 549 0
DWIDTH 9 0
BBX 7 13 1 0
BITMAP
32
14
08
00
3C
42
80
80
80
80
80
42
3C
ENDCHAR
STARTCHAR dcroat
ENCODING 273
SWIDTH 634 0
DWIDTH 10 0
BBX 9 12 1 0
BITMAP
0100
0F80
0100
3D00
4300
8100
8100
8100
8100
8100
4300
3D00
ENDCHAR
STARTCHAR Gbreve
ENCODING 286
SWIDTH 774 0
DWIDTH 12 0
BBX 10 15 1 0
BITMAP
1100
0E00
0000
1F80
20C0
4040
8000
8000
8000
83C0
8040
8040
4040
2040
1F80
ENDCHAR
STARTCHAR gbreve
ENCODING 287
SWIDTH 634 0
DWIDTH 10 0
BBX 8 15 1 -3
BITMAP
22
1C
00
3D
43
81
81
81
81
81
43
3D
01
42
3C
ENDCHAR
STARTCHAR Idotaccent
ENCODING 304
SWIDTH 294 0
DWIDTH 5 0
BBX 2 15 1 0
BITMAP
C0
C0
00
40
40
40
40
40
40
40
40
40
40
40
40
ENDCHAR
STARTCHAR dotlessi
ENCODING 305
SWIDTH 277 0
DWIDTH 3 0
BBX 1 9 1 0
BITMAP
80
80
80
80
80
80
80
80
80
ENDCHAR
STARTCHAR Lslash
ENCODING 321
SWIDTH 562 0
DWIDTH 9 0
BBX 9 12 0 0
BITMAP
2000
2000
2000
2400
2C00
3000
2000
E000
2000
2000
2000
3F80
ENDCHAR
STARTCHAR lslash
ENCODING 322
SWIDTH 284 0
DWIDTH 4 0
BBX 3 12 0 0
BITMAP
40
40
40
40
60
40
C0
40
40
40
40
40
ENDCHAR
STARTCHAR OE
ENCODING 338
SWIDTH 1069 0
DWIDTH 17 0
BBX 15 12 1 0
BITMAP
1FFE
2100
4100
8100
8100
81FE
8100
8100
8100
4100
2100
1FFE
ENDCHAR
STARTCHAR oe
ENCODING 339
SWIDTH 1022 0
DWIDTH 15 0
BBX 13 9 1 0
BITMAP
38E0
4510
8208
8208
83F8
8200
8200
4508
38F0
ENDCHAR
STARTCHAR Scedilla
ENCODING 350
SWIDTH 634 0
DWIDTH 10 0
BBX 8 15 1 -3
BITMAP
3C
C6
80
80
80
70
1E
03
01
81
C3
7C
08
08
38
ENDCHAR
STARTCHAR scedilla
ENCODING 351
SWIDTH 520 0
DWIDTH 9 0
BBX 7 12 1 -3
BITMAP
7C
82
80
C0
78
06
02
82
7C
10
10
70
ENDCHAR
STARTCHAR Scaron
ENCODING 352
SWIDTH 634 0
DWIDTH 10 0
BBX 8 15 1 0
BITMAP
16
1C
00
3C
C6
80
80
80
70
1E
03
01
81
C3
7C
ENDCHAR
STARTCHAR scaron
ENCODING 353
SWIDTH 520 0
DWIDTH 9 0
BBX 7 13 1 0
BITMAP
24
28
18
00
7C
82
80
C0
78
06
02
82
7C
ENDCHAR
STARTCHAR Ydieresis
ENCODING 376
SWIDTH 610 0
DWIDTH 9 0
BBX 9 15 0 0
BITMAP
1200
1200
0000
8080
4100
2200
2200
1400
0800
0800
0800
0800
0800
0800
0800
ENDCHAR
STARTCHAR Zcaron
ENCODING 381
SWIDTH 685 0
DWIDTH 12 0
BBX 10 15 1 0
BITMAP
1200
0C00
0000
FFC0
0040
0080
0100
0200
0400
0800
1000
2000
4000
8000
FFC0
ENDCHAR
STARTCHAR zcaron
ENCODING 382
SWIDTH 524 0
DWIDTH 9 0
BBX 7 13 1 0
BITMAP
24
28
18
00
FE
02
04
08
10
20
40
80
FE
ENDCHAR
STARTCHAR florin
ENCODING 402
SWIDTH 636 0
DWIDTH 10 0
BBX 10 15 0 -3
BITMAP
01C0
0200
0400
0400
0400
1F00
0800
0800
0800
0800
0800
0800
1000
1000
E000
ENDCHAR
STARTCHAR circumflex
ENCODING 710
SWIDTH 500 0
DWIDTH 8 0
BBX 5 3 2 10
BITMAP
20
50
88
ENDCHAR
STARTCHAR caron
ENCODING 711
SWIDTH 500 0
DWIDTH 8 0
BBX 5 3 2 10
BITMAP
88
50
20
ENDCHAR
STARTCHAR breve
ENCODING 728
SWIDTH 500 0
DWIDTH 8 0
BBX 5 2 2 10
BITMAP
88
70
ENDCHAR
STARTCHAR dotaccent
ENCODING 729
SWIDTH 500 0
DWIDTH 8 0
BBX 2 2 3 10
BITMAP
C0
C0
ENDCHAR
STARTCHAR ring
ENCODING 730
SWIDTH 500 0
DWIDTH 8 0
BBX 4 4 2 10
BITMAP
60
90
90
60
ENDCHAR
STARTCHAR ogonek
ENCODING 731
SWIDTH 500 0
DWIDTH 8 0
BBX 3 3 3 -3
BITMAP
80
80
E0
ENDCHAR
STARTCHAR tilde
ENCODING 732
SWIDTH 500 0
DWIDTH 8 0
BBX 5 2 1 10
BITMAP
E8
B8
ENDCHAR
STARTCHAR hungarumlaut
ENCODING 733
SWIDTH 500 0
DWIDTH 8 0
BBX 6 3 2 10
BITMAP
6C
48
90
ENDCHAR
STARTCHAR Omega
ENCODING 937
SWIDTH 764 0
DWIDTH 12 0
BBX 11 12 1 0
BITMAP
1F00
2080
4040
8020
8020
8020
8020
8020
C060
60C0
3180
FBE0
ENDCHAR
STARTCHAR pi
ENCODING 960
SWIDTH 588 0
DWIDTH 9 0
BBX 10 8 0 0
BITMAP
7FC0
9100
3100
3300
2200
2200
6200
6380
ENDCHAR
STARTCHAR endash
ENCODING 8211
SWIDTH 500 0
DWIDTH 8 0
BBX 8 1 0 4
BITMAP
FF
ENDCHAR
STARTCHAR emdash
ENCODING 8212
SWIDTH 1000 0
DWIDTH 16 0
BBX 16 1 0 4
BITMAP
FFFF
ENDCHAR
STARTCHAR quoteleft
ENCODING 8216
SWIDTH 317 0
DWIDTH 5 0
BBX 2 4 1 8
BITMAP
40
80
80
80
ENDCHAR
STARTCHAR quoteright
ENCODING 8217
SWIDTH 317 0
DWIDTH 5 0
BBX 3 4 1 8
BITMAP
60
60
40
80
ENDCHAR
STARTCHAR quotesinglbase
ENCODING 8218
SWIDTH 317 0
DWIDTH 5 0
BBX 2 4 1 -2
BITMAP
40
40
40
80
ENDCHAR
STARTCHAR quotedblleft
ENCODING 8220
SWIDTH 518 0
DWIDTH 8 0
BBX 5 4 1 8
BITMAP
48
90
90
90
ENDCHAR
STARTCHAR quotedblright
ENCODING 8221
SWIDTH 518 0
DWIDTH 8 0
BBX 5 4 1 8
BITMAP
48
48
48
90
ENDCHAR
STARTCHAR quotedblbase
ENCODING 8222
SWIDTH 518 0
DWIDTH 8 0
BBX 5 4 1 -2
BITMAP
48
48
48
90
ENDCHAR
STARTCHAR dagger
ENCODING 8224
SWIDTH 500 0
DWIDTH 8 0
BBX 7 14 0 -2
BITMAP
10
10
10
FE
10
10
10
10
10
10
10
10
10
10
ENDCHAR
STARTCHAR daggerdbl
ENCODING 8225
SWIDTH 500 0
DWIDTH 8 0
BBX 7 14 0 -2
BITMAP
10
10
10
FE
10
10
10
10
10
10
FE
10
10
10
ENDCHAR
STARTCHAR bullet
ENCODING 8226
SWIDTH 589 0
DWIDTH 9 0
BBX 5 5 2 3
BITMAP
70
F8
F8
F8
70
ENDCHAR
STARTCHAR ellipsis
ENCODING 8230
SWIDTH 1000 0
DWIDTH 16 0
BBX 11 2 2 0
BITMAP
8420
8420
ENDCHAR
STARTCHAR perthousand
ENCODING 8240
SWIDTH 1341 0
DWIDTH 21 0
BBX 19 12 1 0
BITMAP
704000
884000
888000
898000
890000
720000
0271C0
048A20
0C8A20
088A20
108A20
1071C0
ENDCHAR
STARTCHAR guilsinglleft
ENCODING 8249
SWIDTH 399 0
DWIDTH 6 0
BBX 4 7 1 1
BITMAP
10
30
40
80
40
30
10
ENDCHAR
STARTCHAR guilsinglright
ENCODING 8250
SWIDTH 399 0
DWIDTH 6 0
BBX 4 7 2 1
BITMAP
80
C0
20
10
20
C0
80
ENDCHAR
STARTCHAR Euro
ENCODING 8364
SWIDTH 636 0
DWIDTH 10 0
BBX 10 12 0 0
BITMAP
0780
18C0
1000
2000
FF00
2000
2000
FE00
2000
1000
18C0
0780
ENDCHAR
STARTCHAR trademark
ENCODING 8482
SWIDTH 1000 0
DWIDTH 16 0
BBX 10 5 2 7
BITMAP
FE40
26C0
2740
2540
2440
ENDCHAR
STARTCHAR partialdiff
ENCODING 8706
SWIDTH 517 0
DWIDTH 8 0
BBX 7 10 0 0
BITMAP
38
64
02
02
7A
C6
86
84
8C
78
ENDCHAR
STARTCHAR Delta
ENCODING 8710
SWIDTH 668 0
DWIDTH 11 0
BBX 11 12 0 0
BITMAP
0E00
0A00
0A00
1100
1100
2080
2080
2080
4040
4040
8020
FFE0
ENDCHAR
STARTCHAR product
ENCODING 8719
SWIDTH 756 0
DWIDTH 12 0
BBX 10 15 1 -3
BITMAP
FFC0
8040
8040
8040
8040
8040
8040
8040
8040
8040
8040
8040
8040
8040
8040
ENDCHAR
STARTCHAR summation
ENCODING 8721
SWIDTH 673 0
DWIDTH 11 0
BBX 10 15 0 -3
BITMAP
FFC0
8000
4000
2000
1000
0800
0400
0200
0400
0800
1000
2000
4000
8000
FFC0
ENDCHAR
STARTCHAR minus
ENCODING 8722
SWIDTH 837 0
DWIDTH 13 0
BBX 10 1 2 4
BITMAP
FFC0
ENDCHAR
STARTCHAR fraction
ENCODING 8725
SWIDTH 166 0
DWIDTH 3 0
BBX 9 12 -3 0
BITMAP
0180
0100
0200
0200
0400
0800
0800
1000
2000
2000
4000
C000
ENDCHAR
STARTCHAR periodcentered
ENCODING 8729
SWIDTH 317 0
DWIDTH 5 0
BBX 1 2 2 5
BITMAP
80
80
ENDCHAR
STARTCHAR radical
ENCODING 8730
SWIDTH 637 0
DWIDTH 10 0
BBX 10 13 0 0
BITMAP
00C0
0080
0100
0100
0100
0200
E200
2400
2400
3400
1800
1800
1000
ENDCHAR
STARTCHAR infinity
ENCODING 8734
SWIDTH 833 0
DWIDTH 13 0
BBX 10 6 2 2
BITMAP
7380
8C40
8440
8840
9CC0
7380
ENDCHAR
STARTCHAR integral
ENCODING 8747
SWIDTH 520 0
DWIDTH 8 0
BBX 7 15 0 -3
BITMAP
0E
08
10
10
10
10
10
10
10
10
10
10
10
20
E0
ENDCHAR
STARTCHAR approxequal
ENCODING 8776
SWIDTH 837 0
DWIDTH 13 0
BBX 10 5 2 3
BITMAP
7840
8780
0000
7840
8780
ENDCHAR
STARTCHAR notequal
ENCODING 8800
SWIDTH 837 0
DWIDTH 13 0
BBX 10 8 2 1
BITMAP
0080
0100
FFC0
0400
0800
FFC0
2000
4000
ENDCHAR
STARTCHAR lessequal
ENCODING 8804
SWIDTH 837 0
DWIDTH 13 0
BBX 10 9 2 0
BITMAP
00C0
0700
7800
8000
7800
0700
00C0
0000
FFC0
ENDCHAR
STARTCHAR greaterequal
ENCODING 8805
SWIDTH 837 0
DWIDTH 13 0
BBX 10 9 2 0
BITMAP
C000
3800
0780
0040
0780
3800
C000
0000
FFC0
ENDCHAR
STARTCHAR lozenge
ENCODING 9674
SWIDTH 494 0
DWIDTH 8 0
BBX 8 15 0 -3
BITMAP
18
18
24
24
42
42
81
81
81
42
42
24
24
18
18
ENDCHAR
STARTCHAR fi
ENCODING 64257
SWIDTH 629 0
DWIDTH 10 0
BBX 8 12 1 0
BITMAP
39
41
40
FF
41
41
41
41
41
41
41
41
ENDCHAR
STARTCHAR fl
ENCODING 64258
SWIDTH 629 0
DWIDTH 10 0
BBX 8 12 1 0
BITMAP
3F
41
41
F1
41
41
41
41
41
41
41
41
ENDCHAR
STARTCHAR .notdef
ENCODING -1
SWIDTH 600 0
DWIDTH 10 0
BBX 8 14 1 -3
BITMAP
FF
81
81
81
81
81
81
81
81
81
81
81
81
FF
ENDCHAR
STARTCHAR .null
ENCODING -1
SWIDTH 0 0
DWIDTH 0 0
BBX 1 1 0 0
BITMAP
00
ENDCHAR
STARTCHAR nonmarkingreturn
ENCODING -1
SWIDTH 317 0
DWIDTH 5 0
BBX 1 1 0 0
BITMAP
00
ENDCHAR
STARTCHAR c6459
ENCODING -1
SWIDTH 500 0
DWIDTH 8 0
BBX 4 2 2 10
BITMAP
90
90
ENDCHAR
STARTCHAR c6460
ENCODING -1
SWIDTH 500 0
DWIDTH 8 0
BBX 3 2 3 10
BITMAP
60
C0
ENDCHAR
STARTCHAR c6461
ENCODING -1
SWIDTH 500 0
DWIDTH 8 0
BBX 5 2 1 10
BITMAP
E8
B8
ENDCHAR
STARTCHAR c6462
ENCODING -1
SWIDTH 500 0
DWIDTH 8 0
BBX 3 2 2 10
BITMAP
C0
60
ENDCHAR
STARTCHAR c6463
ENCODING -1
SWIDTH 500 0
DWIDTH 8 0
BBX 5 2 2 10
BITMAP
70
D8
ENDCHAR
STARTCHAR c6466
ENCODING -1
SWIDTH 500 0
DWIDTH 8 0
BBX 5 2 2 10
BITMAP
D8
70
ENDCHAR
STARTCHAR c6467
ENCODING -1
SWIDTH 400 0
DWIDTH 6 0
BBX 5 7 0 5
BITMAP
10
30
50
50
90
F8
10
ENDCHAR
STARTCHAR c6468
ENCODING -1
SWIDTH 500 0
DWIDTH 8 0
BBX 5 2 2 10
BITMAP
88
70
ENDCHAR
STARTCHAR c6469
ENCODING -1
SWIDTH 500 0
DWIDTH 8 0
BBX 2 2 3 10
BITMAP
C0
C0
ENDCHAR
ENDFONT
